<svg id="圖層_1" data-name="圖層 1" xmlns="http://www.w3.org/2000/svg" viewBox="0 0 257 96"><defs><style>.cls-1{fill:#dc3545;fill-rule:evenodd;}.cls-2{fill:#333;}.cls-3{fill:none;stroke:#333;stroke-miterlimit:10;stroke-width:1.5px;}</style></defs><path class="cls-1" d="M46.59355,10.45435v14.3308a40.36008,40.36008,0,0,0-23.24261,8.06876s-8.18923,5.5397-10.35689,14.93315c0,0-3.01079,10.11612,10.35689,13.84924v1.445s-10.83853-.24078-17.34183-7.22547c0,0-7.46657-6.74416-2.5289-19.75035,0,0,2.64954-5.29884,4.57642-7.34643,0,0,15.29431-18.66587,38.53692-18.3047ZM29.13134,38.15283V58.26434l17.46221-9.15267V28.75905L29.13134,38.15283ZM52.13325,23.822v1.56547s6.86422,1.6861,9.0322,5.66a13.61682,13.61682,0,0,1-1.08382,14.81276S50.80856,61.39552,29.25205,62.47935v24.2058l17.4619-9.27273V73.077s13.247-4.817,21.075-14.5719c0,0,11.56078-11.9226,3.37187-25.65121C71.16085,32.85391,66.46405,24.90554,52.13325,23.822Z"/><path class="cls-2" d="M187.98242,33.20508a27.89974,27.89974,0,0,1-4.88769,9.49023,100.20116,100.20116,0,0,1,13.418,6.75977l-3.22754,3.7959a88.94148,88.94148,0,0,0-13.55664-7.22168c-4.70411,3.7959-11.15918,5.97168-19.82813,7.31445a19.94282,19.94282,0,0,0-2.6748-4.30566c7.60839-.87989,13.37207-2.40723,17.61523-5.13868-4.19629-1.71289-8.48535-3.24023-12.3584-4.49023,1.24512-1.75977,2.67481-3.88965,4.01172-6.2041h-9.499V29.13086H168.7998a61.25125,61.25125,0,0,0,3.458-7.68457l4.8877.92578a71.01073,71.01073,0,0,1-3.043,6.75879h9.82226c.27637-1.3418.50684-2.87012.69141-4.39746l5.21094.417c-.23047,1.38867-.46192,2.73047-.73828,3.98047h7.88574v4.07422Zm-25.59277-7.5918h-4.334V15.89062H174.794c-.59961-1.38867-1.33692-3.05566-1.93653-4.35156l4.70313-1.15722c.87695,1.71289,1.9834,3.88867,2.6748,5.50878h15.63184v9.72266h-4.56446V19.919H162.38965Zm9.5,7.5918c-.87695,1.52832-1.707,2.96289-2.53613,4.25976,2.99707,1.01758,6.13281,2.12891,9.17578,3.333a19.73581,19.73581,0,0,0,4.335-7.59277Z"/><path class="cls-2" d="M244.33105,45.335c-.6914,1.3418-1.33691,2.63867-1.98242,3.70313H246.959v3.05566H225.74805V49.03809h3.22754a26.33371,26.33371,0,0,0-1.56739-3.65723l2.72071-.74024a15.66763,15.66763,0,0,1,1.752,3.70313l-2.12109.69434h4.38085V44.3623h-7.88574V41.72363h7.88574v-2.083h-4.93457v-1.2041q-1.24511.55518-2.49023.97266a9.65813,9.65813,0,0,0-2.02832-2.54688c4.19629-1.20312,8.66895-3.2871,11.20508-5.92578H217.26367l1.752.69434a4.9364,4.9364,0,0,1-.6455.74121,41.52478,41.52478,0,0,1,6.31738,3.75l-1.47559,2.5c-.36914-.27832-.876-.64844-1.42968-1.06543v2.03711h-4.15039v2.03711h6.68652v2.63867h-6.68652v4.49121l1.38378-.13965a32.628,32.628,0,0,0,1.66016-4.166l2.67383.74023c-.50684,1.06543-1.01367,2.12989-1.47461,3.14844l2.582-.27734.0459,2.82324c-6.45605.74121-13.28027,1.43555-18.07617,1.99121l-.46094-3.05566c2.30566-.18555,5.21094-.4629,8.43848-.78711V44.26953h-7.42383V41.63086h7.42383V39.59375h-4.56543V38.39062c-.83008.37012-1.61328.69434-2.44336,1.01856a11.1183,11.1183,0,0,0-2.0752-2.63965c3.96582-1.20312,8.208-3.28613,10.69824-5.833h-6.87109V27.92773h7.88574c-.32324-.69433-.69238-1.48144-1.01465-2.083l3.18165-.78711a13.09516,13.09516,0,0,1,1.47558,2.87011h3.68848V24.96484H212.09863V22.2793h12.26563V20.335h-6.77832V18.76074a78.86923,78.86923,0,0,1-8.80762,2.54688,14.234,14.234,0,0,0-2.25879-3.24121c7.42383-1.38868,16.04688-4.12012,20.61133-7.73047l3.13574,1.75879c-.32226.23144-.59961.46289-.92187.74023a71.59018,71.59018,0,0,0,16.96875,4.62988,10.655,10.655,0,0,0-2.39746,3.42578,82.14933,82.14933,0,0,1-8.48438-2.31445V20.335h-7.00879V22.2793h12.21973v2.68554h-6.73242l3.36621.74024c-.55371.78711-1.01465,1.52832-1.52246,2.22265h8.39257v3.00879h-7.42382l2.21289.87989c-.23047.27734-.55274.64843-.876.97265a34.38019,34.38019,0,0,0,9.26855,3.70313,9.562,9.562,0,0,0-2.12109,2.63867c-.96777-.32422-1.89062-.69434-2.7666-1.01856v1.52832h-4.8418v2.083H246.083V44.3623h-8.48438v4.67579h1.79883a30.81547,30.81547,0,0,0,2.02832-4.39747ZM211.084,44.68652a14.30349,14.30349,0,0,1,1.61426,3.61133l-2.62793.78711a18.87837,18.87837,0,0,0-1.42969-3.84277Zm10.05274-7.5459a49,49,0,0,0-4.8418-2.77832,25.15656,25.15656,0,0,1-4.05762,2.77832Zm12.17383-19.35156a54.28778,54.28778,0,0,1-6.8252-3.10156,47.81475,47.81475,0,0,1-6.36328,3.10156Zm-4.8877,10.13867h3.73438c.55371-1.01855,1.15332-2.12988,1.52246-2.96289h-5.25684Zm12.08106,9.25879a30.9859,30.9859,0,0,1-4.38086-2.68457,29.62285,29.62285,0,0,1-4.19629,2.68457Z"/><path class="cls-2" d="M102.09277,38.74609V32.46875h16.15137V47.30957a20.29957,20.29957,0,0,1-6.82226,4.02832,24.76154,24.76154,0,0,1-9.05079,1.74121A20.24068,20.24068,0,0,1,92.21973,50.626a15.56451,15.56451,0,0,1-6.50684-7.01368,22.728,22.728,0,0,1-2.17676-9.92382,21.51611,21.51611,0,0,1,2.42969-10.34375,16.40342,16.40342,0,0,1,7.11426-6.9375,19.13892,19.13892,0,0,1,8.88574-1.85547q6.91113,0,10.79785,2.91015a13.14978,13.14978,0,0,1,5,8.043l-7.44336,1.39844a7.88784,7.88784,0,0,0-2.94922-4.333,8.89461,8.89461,0,0,0-5.40527-1.58886,10.13241,10.13241,0,0,0-7.80957,3.126q-2.89893,3.126-2.89941,9.27637,0,6.63281,2.9375,9.94922a9.78592,9.78592,0,0,0,7.69531,3.3164,12.86494,12.86494,0,0,0,4.72168-.92773,16.16,16.16,0,0,0,4.06347-2.249V38.74609Z"/><path class="cls-2" d="M123.46,38.56738a14.6405,14.6405,0,0,1,1.74707-6.88672,12.006,12.006,0,0,1,4.94922-5.083,14.6412,14.6412,0,0,1,7.15137-1.75293,13.39579,13.39579,0,0,1,10,3.97656A13.77414,13.77414,0,0,1,151.207,38.87305a13.93228,13.93228,0,0,1-3.9375,10.15234,13.27752,13.27752,0,0,1-9.91113,4.02832,15.56655,15.56655,0,0,1-7.05078-1.67773,11.476,11.476,0,0,1-5.10059-4.917A16.433,16.433,0,0,1,123.46,38.56738Zm7.291.38184a8.96343,8.96343,0,0,0,1.89843,6.14941,6.19127,6.19127,0,0,0,9.3545,0q1.88525-2.13427,1.88574-6.20019a8.92418,8.92418,0,0,0-1.88574-6.09961,6.19127,6.19127,0,0,0-9.3545,0A8.96616,8.96616,0,0,0,130.751,38.94922Z"/><path class="cls-2" d="M136.668,68.9043H128.0625V67.50977H136.668Zm10.81348,5.166a14.57524,14.57524,0,0,1-4.05176,6.583,15.61076,15.61076,0,0,0,5.37207,2.28516,7.31253,7.31253,0,0,0-1.04688,1.53125A16.03449,16.03449,0,0,1,142.1084,81.75a18.12355,18.12355,0,0,1-5.64551,2.78906,6.15393,6.15393,0,0,0-.77441-1.418h-5.19043v1.0752h-1.4795V76.51562h6.71583v6.44629a16.5161,16.5161,0,0,0,5.07714-2.30859,15.62254,15.62254,0,0,1-3.39257-5.05176l.97949-.34277H136.417V73.6582h9.69824l.29688-.06836Zm-11.74707-3.5664v1.34863H129.041V70.50391ZM129.041,73.47559h6.71582v1.34863H129.041Zm5.19043,4.457h-3.7334V81.7041h3.7334Zm-2.00293-10.67383a21.3421,21.3421,0,0,0-1.708-3.06348l1.32129-.66308a19.99774,19.99774,0,0,1,1.75293,2.94922Zm7.96777-.252a6.5766,6.5766,0,0,1-3.30078,6.08007,8.15349,8.15349,0,0,0-1.09278-1.23437,5.12527,5.12527,0,0,0,2.82325-4.8916V64.44727h6.9209V69.75c0,.63965.04492.8457.36425.8457h1.34278a4.82414,4.82414,0,0,0,1.002-.11425c.02246.43457.09082,1.07421.11328,1.46289a3.72345,3.72345,0,0,1-1.11523.11425h-1.4795c-1.48046,0-1.79882-.64062-1.79882-2.35449V66.04688h-3.7793Zm-1.29785,8.252a12.713,12.713,0,0,0,3.21,4.36523,12.34056,12.34056,0,0,0,3.21-4.36523Z"/><path class="cls-2" d="M161.16309,64.08105c-.501,1.55469-1.09278,3.17774-1.75293,4.68555V84.46973h-1.63965V71.9668a24.64636,24.64636,0,0,1-1.79785,2.6748,12.85719,12.85719,0,0,0-.91114-1.7373,27.55933,27.55933,0,0,0,4.55371-9.28028Zm4.84961,7.2461a14.46664,14.46664,0,0,1-1.32129,1.7832h9.94921v9.668c0,.75488-.13671,1.12012-.66015,1.39453a5.97037,5.97037,0,0,1-2.27637.252,5.23644,5.23644,0,0,0-.501-1.37207c.68262.02344,1.34278.02344,1.54786,0,.22754,0,.27343-.06835.27343-.29687V81.06445h-3.55175v2.90332H167.9248V81.06445h-3.916a8.4915,8.4915,0,0,1-1.50293,3.543,5.98245,5.98245,0,0,0-1.34277-1.02832c1.36621-1.80566,1.50293-4.206,1.50293-6.10351V75.05273a20.18818,20.18818,0,0,1-1.958,1.3711,10.34823,10.34823,0,0,0-1.002-1.34766,13.70446,13.70446,0,0,0,4.48536-3.749h-3.30176V69.75h4.07519V67.53223h-3.4375V65.97852h3.4375V63.73828h1.61621v2.24024h3.80274V63.73828h1.63867v2.24024h3.07324v1.55371h-3.07324V69.75h3.665v1.57715Zm1.9121,8.43457V77.77246h-3.62011c0,.61719-.04492,1.30371-.11328,1.98926Zm-3.62011-3.292h3.62011V74.5498h-3.62011ZM166.58105,69.75h3.80274V67.53223h-3.80274Zm6.44336,4.7998h-3.55175v1.91993h3.55175Zm0,5.21192V77.77246h-3.55175v1.98926Z"/><path class="cls-2" d="M184.88477,78.459a31.2335,31.2335,0,0,1-1.11622,5.50879,7.39071,7.39071,0,0,0-1.25195-.458,27.41235,27.41235,0,0,0,1.07031-5.25684Zm4.50781-6.14941a37.67205,37.67205,0,0,1,1.52441,4.36621l-1.27441.50293c-.06836-.32031-.18262-.709-.27344-1.09766-5.07617.80079-5.75976.96-6.19238,1.18848a7.42928,7.42928,0,0,0-.47754-1.48535c.45508-.0918.95605-.66309,1.61621-1.53125a29.14749,29.14749,0,0,0,1.86621-2.67481,10.71209,10.71209,0,0,0-3.1416.54883c-.09082-.32031-.31836-1.07422-.47754-1.46289.36426-.09179.751-.57129,1.20605-1.25683a30.33489,30.33489,0,0,0,2.91407-5.76075l1.43457.61719a35.84664,35.84664,0,0,1-3.4375,6.126l2.39062-.22852a34.42634,34.42634,0,0,0,1.66114-3.15429l1.32128.7998a46.40579,46.40579,0,0,1-4.98632,7.58887l3.916-.54883c-.251-.73145-.54687-1.46289-.79687-2.125Zm-2.27735,5.85156a34.78985,34.78985,0,0,1,.6377,4.80078l-1.27441.31934a44.859,44.859,0,0,0-.54688-4.8916Zm2.39063-.59375a33.61991,33.61991,0,0,1,1.34375,4.38867l-1.18457.43457a33.35971,33.35971,0,0,0-1.27442-4.43457Zm13.2959,5.02832c0,.9375-.18262,1.34864-.77442,1.62305a7.439,7.439,0,0,1-2.86816.29687,6.3289,6.3289,0,0,0-.43262-1.50878c.95606.04589,1.86621.02343,2.13965.02343.2959-.02343.38672-.11425.38672-.43457V66.22949h-8.51465V84.53906h-1.52539V64.7207h11.58887Zm-3.666-3.77148a6.5097,6.5097,0,0,0,1.34375-.11426c.04492.38867.09082.91406.13672,1.25684a6.21728,6.21728,0,0,1-1.457.11425h-2.91406c-1.50293,0-1.84473-.54785-1.84473-2.05664V75.80664h-.8418V74.459h3.09571a14.27046,14.27046,0,0,0-.8877-2.01171l1.04688-.41211h-3.48243V70.6875h4.3252a25.23412,25.23412,0,0,0,1.07031-3.77246l1.22852.36621c-.34082,1.12012-.751,2.42285-1.11524,3.40625h1.93555v1.34766H196.9502a18.4782,18.4782,0,0,1,1.00195,2.05761l-.81934.36621H200.502v1.34766H195.8125v2.24024c0,.59472.06836.77734.5459.77734Zm-3.9834-11.9541a11.06537,11.06537,0,0,1,1.22852,3.24511l-1.09277.38868a12.39843,12.39843,0,0,0-1.1836-3.26856Z"/><line class="cls-3" x1="119.5583" y1="76" x2="86.4417" y2="76"/><line class="cls-3" x1="245.32813" y1="76" x2="212.21153" y2="76"/></svg>